# xmcd
#
# Track frame offsets: 
#        150
#        25732
#        41285
#        91207
#        125140
#        190462
#        215720
#        244115
#        279800
#
# Disc length: 4695 seconds
#
# Revision: 3
# Processed by: cddbd v1.5.2PL0 Copyright (c) Steve Scherf et al.
# Submitted via: ExactAudioCopy v0.95a5
#
DISCID=7a125509
DTITLE=Tim Buckley - Live At The Troubadour 1969
DYEAR=1969
DGENRE=Blues
TTITLE0=Strange Feelin'
TTITLE1=Venice Mating Call
TTITLE2=I Don't Need It To Rain
TTITLE3=I Had A Talk With My Woman
TTITLE4=Gypsy Woman
TTITLE5=Blue Melody
TTITLE6=Chase The Blues Away
TTITLE7=Driftin'
TTITLE8=Nobody Walkin'
EXTD=
EXTT0=
EXTT1=
EXTT2=
EXTT3=
EXTT4=
EXTT5=
EXTT6=
EXTT7=
EXTT8=
PLAYORDER=
